<?xml version="1.0" encoding="iso-8859-1"?>
<!-- Uploaded to: SVG Repo, www.svgrepo.com, Generator: SVG Repo Mixer Tools -->
<svg version="1.1" id="Layer_1" xmlns="http://www.w3.org/2000/svg" xmlns:xlink="http://www.w3.org/1999/xlink" 
	 viewBox="0 0 512 512" xml:space="preserve">
<rect x="160" y="357.416" style="fill:#333333;" width="192" height="108.336"/>
<polygon points="160,376.152 274.24,376.152 160,434.056 "/>
<path style="fill:#999999;" d="M377.456,487.848H134.544c-9.424,0-17.12-7.712-17.12-17.12l0,0c0-9.424,7.712-17.12,17.12-17.12
	H377.44c9.424,0,17.12,7.712,17.12,17.12l0,0C394.576,480.136,386.864,487.848,377.456,487.848z"/>
<path style="fill:#D6D6D6;" d="M480,376.152H32c-17.6,0-32-14.4-32-32v-288c0-17.6,14.4-32,32-32h448c17.6,0,32,14.4,32,32v288
	C512,361.752,497.6,376.152,480,376.152z"/>
<rect x="21.968" y="46.088" style="fill:#0BA4E0;" width="468.16" height="308.128"/>
<g>
	<path style="fill:#FFFFFF;" d="M119.664,196.28l91.824-44.56v17.424l-72.832,33.904v0.384l72.832,34.096v17.248l-91.824-44.544
		V196.28z"/>
	<path style="fill:#FFFFFF;" d="M224.928,262.536l47.28-140.448h16.656l-47.28,140.448H224.928z"/>
	<path style="fill:#FFFFFF;" d="M392.336,210.616l-91.824,44.176v-17.248l74.016-34.096v-0.384l-74.016-34.096V151.72l91.824,44.176
		V210.616z"/>
</g>
</svg>